<?xml version="1.0" encoding="UTF-8"?>
<svg id="Camada_2" data-name="Camada 2" xmlns="http://www.w3.org/2000/svg" viewBox="0 0 451.77 557.99">
  <defs>
    <style>
      .cls-1 {
        fill: none;
      }

      .cls-1, .cls-2, .cls-3, .cls-4, .cls-5, .cls-6 {
        stroke-width: 0px;
      }

      .cls-7, .cls-8 {
        stroke: #fff;
        stroke-miterlimit: 10;
      }

      .cls-7, .cls-6 {
        fill: #fff;
      }

      .cls-8, .cls-3 {
        fill: #231f20;
      }

      .cls-2 {
        fill: #457035;
      }

      .cls-4 {
        fill: #bf2134;
      }

      .cls-5 {
        fill: #a21e23;
      }
    </style>
  </defs>
  <g id="Layer_2" data-name="Layer 2">
    <g>
      <g>
        <rect class="cls-1" x="345.42" y="231.42" width="5.38" height="17.76"/>
        <circle class="cls-8" cx="240.07" cy="193.59" r="176.92"/>
        <path class="cls-7" d="M352,56.87c-29.9-24.66-68.07-39.72-109.83-40.34-43.67-.65-83.87,14.58-115.11,40.35l112.47,306.63L352,56.87Z"/>
        <polygon class="cls-3" points="297.04 65.67 240.04 98.58 183.04 65.67 183.04 138.08 240.04 105.17 297.04 138.08 297.04 65.67"/>
        <path class="cls-4" d="M366.77,209.94c-1.53-11.24-8.01-19.81-16.6-25.72-3.09-2.12-5.97-3.54-7.22-4.13-3.31-1.57-6.28-2.58-8.61-3.24-2.47-.98-4.35-.75-4.88.06-.23.36-.09,1,.58,2.09,3.71,7.8-2.76,13.04-6.73,18.75-5.94,10.34-3.34,19.42,4.08,28.79,7.16,6.58,14.68,8.56,22.78,7.98.7-.05,1.39-.11,2.1-.2,12.5-2.89,15.72-18.37,14.51-24.38Z"/>
        <path class="cls-2" d="M375.94,225.56c.85-1.5,1.23-3.12,1.16-4.84-.57,1.01-1.21,2.02-1.91,3.04-5.92,7.68-15.45,11.42-24.93,11.38-9.48.04-19.01-3.7-24.93-11.38-.7-1.01-1.34-2.03-1.91-3.04-.07,1.72.31,3.34,1.16,4.84,4.28,8.88,13.02,15.2,23.32,16.04v2.59s-4.84.17-12.67-2.48c-7.83-2.65-6.45-1.49-6.45-1.49,0,0,9.07,9.1,19.12,13.07v17.08h0c-.08,1.57,1.14,2.34,2.35,2.33,1.21.01,2.43-.76,2.35-2.33h0v-17.08c10.05-3.97,19.12-13.07,19.12-13.07,0,0,1.38-1.16-6.45,1.49-7.83,2.65-12.67,2.48-12.67,2.48v-2.59c10.3-.84,19.03-7.16,23.32-16.04Z"/>
        <path class="cls-5" d="M377.02,197.76c-3.97-5.71-10.44-10.95-6.73-18.75,2.02-3.33-.78-2.46-4.3-2.15-2.85.82-5.65,1.87-8.34,3.12,0,0,.02,0,.03-.01-5.08-8.18-10.03-10.58-14.42.29,1.37.66,4.04,2.01,6.9,3.98,8.6,5.9,15.07,14.47,16.6,25.72,1.21,6.01-2,21.49-14.51,24.38-.7.09-1.4.15-2.1.2-3.19.23-6.29.05-9.31-.64,3.05.84,6.23,1.27,9.41,1.25,3.37.01,6.73-.48,9.95-1.43,4.39-1.13,8.62-3.39,12.73-7.16,7.42-9.37,10.02-18.45,4.08-28.79ZM352.88,234.62s.09,0,.13,0c-.04,0-.09,0-.13,0ZM358.45,234.1s.01,0,.02,0c0,0-.01,0-.02,0ZM355.68,234.49s.06,0,.09,0c-.03,0-.06,0-.09,0Z"/>
      </g>
      <g>
        <path class="cls-6" d="M38.93,524.65c-.2-1-.8-1.8-1.8-1.8h-14.77c-.6,0-1,.6-1.2,1.4l-2.99,21.96c-.2,1.4.2,2.6,1,3.59l4.39,4.59c.8,1,2,1.8,2,2.4s-.4,1.2-1.4,1.2H1.2c-.8,0-1.2-.6-1.2-1.2s.8-1.4,1.4-2l5.59-5.59c1.2-1.2,1.4-3.19,1.6-4.99l18.17-134.16c.2-1,.6-1.8,1.6-1.8h7.39c1,0,1.6,1,1.8,2.2l18.97,133.96c.2,2,.8,4.19,2.2,5.39l5.79,5.19c.6.6,1.2,1.2,1.2,1.8s-.4,1.2-1.4,1.2h-28.75c-1,0-1.4-.6-1.4-1.2s.8-1.2,1.4-1.8l5.39-5.39c.8-.8,1.2-2.2,1-3.99l-3-20.96ZM36.14,512.27c.6,0,1-.6.8-1.4l-6.99-48.91h-.4l-6.59,49.11c-.2.8.2,1.2.6,1.2h12.58Z"/>
        <path class="cls-6" d="M96.23,453.97h.4c3.59-3.79,6.99-6.99,13.78-6.99,9.98,0,16.57,6.99,16.57,20.36v79.66c0,.8,0,1.4.4,1.8l6.19,6.99c.4.4.8,1,.8,1.4,0,.6-.6.8-1.2.8h-26.35c-.8,0-1.2-.2-1.2-.8,0-.4.4-1,.8-1.4l6.19-6.99c.4-.4.4-1,.4-1.8v-79.86c0-7.59-2.2-11.58-6.79-11.58s-9.98,6.59-9.98,17.37v74.07c0,.8,0,1.4.2,1.8l6.19,6.99c.6.4,1,1,1,1.4,0,.6-.6.8-1.2.8h-26.35c-.8,0-1.2-.2-1.2-.8,0-.4.2-1,.8-1.4l6.19-6.99c.4-.4.4-1,.4-1.8v-90.44c0-.8-.2-1.2-.6-1.6l-5.99-5.59c-.4-.6-.8-1.2-.8-1.6,0-.6.6-.8,1.2-.8h19.17c.8,0,1,.4,1,1.2v5.79Z"/>
        <path class="cls-6" d="M180.07,417.84c0-.8-.2-1.2-.8-1.6l-5.79-5.79c-.6-.4-1-1-1-1.4,0-.6.6-.8,1.4-.8h18.97c.8,0,1.2.4,1.2,1.2v137.56c0,.8,0,1.4.2,1.8l6.19,6.99c.6.4,1,1,1,1.4,0,.6-.6.8-1.4.8h-18.57c-.8,0-1.4-.4-1.4-.8v-6.79h-.4c-3.39,3.99-6.99,7.59-13.38,7.59-8.78,0-17.97-4.99-17.97-61.29,0-44.52,9.98-49.71,18.17-49.71,5.79,0,9.78,3.19,13.18,6.99h.4v-36.14ZM180.07,470.54c0-9.78-5.99-14.97-8.78-14.97-4.99,0-7.39,4.19-7.39,41.13,0,48.12,2,52.71,7.19,52.71,4.79,0,8.98-6.19,8.98-15.97v-62.89Z"/>
        <path class="cls-6" d="M262.72,497.7c0,49.31-10.78,60.29-23.76,60.29s-23.56-10.98-23.56-60.29c0-39.33,10.78-50.71,23.56-50.71s23.76,11.38,23.76,50.71ZM247.15,497.7c0-34.74-2.79-42.13-8.19-42.13s-7.99,7.39-7.99,42.13c0,44.92,2.8,51.71,7.99,51.71s8.19-6.79,8.19-51.71Z"/>
        <path class="cls-6" d="M298.06,547.01c0,.8,0,1.4.4,1.8l6.19,6.99c.4.4.8,1,.8,1.4,0,.6-.4.8-1.2.8h-26.35c-.6,0-1.2-.2-1.2-.8,0-.4.4-1,.8-1.4l6.19-6.99c.4-.4.4-1,.4-1.8v-129.17c0-.8-.2-1.2-.6-1.6l-5.99-5.79c-.4-.4-.8-1-.8-1.4,0-.6.6-.8,1.2-.8h19.17c.6,0,1,.4,1,1.2v137.56Z"/>
        <path class="cls-6" d="M322.61,456.57c0-.8-.2-1.2-.6-1.6l-5.99-5.59c-.4-.6-.8-1.2-.8-1.6,0-.6.6-.8,1.2-.8h19.17c.6,0,1,.4,1,1.2v98.83c0,.8,0,1.4.4,1.8l6.19,6.99c.4.4.8,1,.8,1.4,0,.6-.4.8-1.2.8h-26.35c-.6,0-1.2-.2-1.2-.8,0-.4.4-1,.8-1.4l6.19-6.99c.4-.4.4-1,.4-1.8v-90.44ZM336.58,418.83c0,5.19-3.19,10.58-7.19,10.58-4.19,0-7.39-5.39-7.39-10.58s3.19-10.58,7.39-10.58,7.19,5.19,7.19,10.58Z"/>
        <path class="cls-6" d="M375.11,453.97h.4c3.59-3.79,6.99-6.99,13.78-6.99,9.98,0,16.57,6.99,16.57,20.36v79.66c0,.8,0,1.4.4,1.8l6.19,6.99c.4.4.8,1,.8,1.4,0,.6-.6.8-1.2.8h-26.35c-.8,0-1.2-.2-1.2-.8,0-.4.4-1,.8-1.4l6.19-6.99c.4-.4.4-1,.4-1.8v-79.86c0-7.59-2.2-11.58-6.79-11.58s-9.98,6.59-9.98,17.37v74.07c0,.8,0,1.4.2,1.8l6.19,6.99c.6.4,1,1,1,1.4,0,.6-.6.8-1.2.8h-26.35c-.8,0-1.2-.2-1.2-.8,0-.4.2-1,.8-1.4l6.19-6.99c.4-.4.4-1,.4-1.8v-90.44c0-.8-.2-1.2-.6-1.6l-5.99-5.59c-.4-.6-.8-1.2-.8-1.6,0-.6.6-.8,1.2-.8h19.17c.8,0,1,.4,1,1.2v5.79Z"/>
        <path class="cls-6" d="M430.41,456.57c0-.8-.2-1.2-.6-1.6l-5.99-5.59c-.4-.6-.8-1.2-.8-1.6,0-.6.6-.8,1.2-.8h19.17c.6,0,1,.4,1,1.2v98.83c0,.8,0,1.4.4,1.8l6.19,6.99c.4.4.8,1,.8,1.4,0,.6-.4.8-1.2.8h-26.35c-.6,0-1.2-.2-1.2-.8,0-.4.4-1,.8-1.4l6.19-6.99c.4-.4.4-1,.4-1.8v-90.44ZM444.39,418.83c0,5.19-3.19,10.58-7.19,10.58-4.19,0-7.39-5.39-7.39-10.58s3.19-10.58,7.39-10.58,7.19,5.19,7.19,10.58Z"/>
      </g>
    </g>
  </g>
</svg>